<svg width="667" height="196" viewBox="0 0 667 196" fill="none" xmlns="http://www.w3.org/2000/svg">
<path d="M100.5 196L0 0H38.5L120 156.5L201.5 0H240L139.5 196H100.5Z" fill="#9B1DFF"/>
<path d="M260.5 196L222 120.5L280.5 0H319L260.5 196Z" fill="#9B1DFF"/>
<path d="M340.5 196L302 120.5L360.5 0H399L340.5 196Z" fill="#9B1DFF"/>
<path d="M420.5 196L382 120.5L440.5 0H479L420.5 196Z" fill="#9B1DFF"/>
<path d="M500.5 196L462 120.5L520.5 0H559L500.5 196Z" fill="#9B1DFF"/>
<path d="M580.5 196L542 120.5L600.5 0H639L580.5 196Z" fill="#9B1DFF"/>
<path d="M660.5 196L622 120.5L680.5 0H719L660.5 196Z" fill="#9B1DFF"/>
</svg>
